<svg xmlns="http://www.w3.org/2000/svg" viewBox="0 0 71.3 76.27"><defs><style>.cls-1{fill:#0f4470;}.cls-2{fill:none;stroke:#0f4470;stroke-miterlimit:10;stroke-width:0.89px;}</style></defs><title>Agendar Cita</title><g id="Layer_2" data-name="Layer 2"><g id="Layer_1-2" data-name="Layer 1"><path class="cls-1" d="M5.54,73.11a5.34,5.34,0,0,1-3.92-1.62A5.34,5.34,0,0,1,0,67.57V12.23A5.39,5.39,0,0,1,1.63,8.36,5.26,5.26,0,0,1,5.54,6.69h7.07V2.39A2.38,2.38,0,0,1,13.28.72,2.14,2.14,0,0,1,14.91,0a2.4,2.4,0,0,1,1.77.72,2.29,2.29,0,0,1,.72,1.67v4.3H47.79V2.39A2.43,2.43,0,0,1,48.41.67,2.17,2.17,0,0,1,50.08,0a2.38,2.38,0,0,1,1.67.67,2.25,2.25,0,0,1,.72,1.72v4.3h7a5.26,5.26,0,0,1,3.92,1.67A5.39,5.39,0,0,1,65,12.23V37.94h-4.3V29.63H4.3V67.57a1.15,1.15,0,0,0,1.24,1.24H30.49v4.3Zm0-62a1.23,1.23,0,0,0-.91.33,1.11,1.11,0,0,0-.33.81V25.33H60.69V12.23a1.11,1.11,0,0,0-.34-.81,1.22,1.22,0,0,0-.91-.33M68,52.28l-5.83-5.83,2.77-2.77a2.34,2.34,0,0,1,1.58-.57,2,2,0,0,1,1.48.57l2.77,2.77A2.35,2.35,0,0,1,71.3,48a2,2,0,0,1-.57,1.48ZM38.13,74.83V71.49a2.57,2.57,0,0,1,.19-1,2.93,2.93,0,0,1,.67-1l19.4-19.4L64.22,56l-19.4,19.4a2.92,2.92,0,0,1-1,.67,2.56,2.56,0,0,1-1,.19H39.57a1.47,1.47,0,0,1-1.43-1.43"/><polyline class="cls-2" points="57.33 38.22 57.33 32.94 7.53 32.94 7.53 65.15 30.18 65.15"/></g></g></svg>