<svg xmlns="http://www.w3.org/2000/svg" viewBox="0 0 69.06 69.06"><defs><style>.cls-1{fill:#0f4470;}.cls-2{fill:none;stroke:#0f4470;stroke-miterlimit:10;}</style></defs><title>buzon de sugerencias</title><g id="Layer_2" data-name="Layer 2"><g id="Layer_1-2" data-name="Layer 1"><path class="cls-1" d="M2.73,69.06A2.64,2.64,0,0,1,0,66.33V41.53a2.8,2.8,0,0,1,.77-2,2.57,2.57,0,0,1,2-.82H14.9V19.35A18.48,18.48,0,0,1,20.63,5.59,19.17,19.17,0,0,1,34.53,0H50A18.24,18.24,0,0,1,63.47,5.68a18.8,18.8,0,0,1,5.59,13.68V67A2,2,0,0,1,67,69.06a1.89,1.89,0,0,1-1.45-.59A2.13,2.13,0,0,1,65,67V58.43H46.34v7.9a2.4,2.4,0,0,1-1,2,3.56,3.56,0,0,1-2.32.77ZM46.34,54.34H65v-35A14.8,14.8,0,0,0,60.56,8.54,14.36,14.36,0,0,0,50,4.09H34.53A15.06,15.06,0,0,0,23.58,8.5a14.61,14.61,0,0,0-4.5,10.86V38.71h24a3.56,3.56,0,0,1,2.32.77,2.49,2.49,0,0,1,1,2Zm-16.08-29a2,2,0,0,1-2.09-2.09,2.08,2.08,0,0,1,.59-1.45,2,2,0,0,1,1.5-.64H53.79a1.86,1.86,0,0,1,1.41.64,2.08,2.08,0,0,1,.59,1.45,2,2,0,0,1-.59,1.5,1.92,1.92,0,0,1-1.41.59ZM22.63,53.43a.68.68,0,0,0,.5.18,1,1,0,0,0,.59-.18L42.16,42.89H4.09ZM4.09,65H42.16V46.89L25.81,56.25a5.76,5.76,0,0,1-1.27.54,5.22,5.22,0,0,1-2.73,0,5.76,5.76,0,0,1-1.27-.54L4.09,46.89Zm0-22.08v1.45h0Z"/><path class="cls-2" d="M48.84,51.84H62.47V19.36a12.28,12.28,0,0,0-3.68-9.05A11.85,11.85,0,0,0,50,6.59H34.53a12.54,12.54,0,0,0-9.2,3.69,12.1,12.1,0,0,0-3.75,9.07V36.21"/><polyline class="cls-2" points="6.11 62.72 39.37 62.72 39.37 50.76"/></g></g></svg>