<svg xmlns="http://www.w3.org/2000/svg" viewBox="0 0 90.93 67.79"><defs><style>.cls-1{fill:#0d427c;}.cls-2,.cls-3{fill:none;stroke:#0f4470;}.cls-2{stroke-linecap:round;stroke-linejoin:round;}.cls-3{stroke-miterlimit:10;}</style></defs><title>credenciales hm</title><g id="Layer_2" data-name="Layer 2"><g id="Layer_1-2" data-name="Layer 1"><path class="cls-1" d="M20.13,51.66A48,48,0,0,1,31.91,53.1a56.12,56.12,0,0,1,12.23,4.42V11.28a43.78,43.78,0,0,0-12-5.37A41.06,41.06,0,0,0,20.13,4.09a35.5,35.5,0,0,0-7.69.77A61.19,61.19,0,0,0,5,7.08a1.62,1.62,0,0,0-.77.55A1.19,1.19,0,0,0,4,8.29V53.21a.91.91,0,0,0,.44.83,1.33,1.33,0,0,0,1,.17,23.88,23.88,0,0,1,6.64-1.94,51.93,51.93,0,0,1,8.08-.61m28,5.86A52.14,52.14,0,0,1,59.24,53.1,45.37,45.37,0,0,1,70.8,51.66a53,53,0,0,1,8.13.61,41,41,0,0,1,6.58,1.49,1,1,0,0,0,1-.05,1,1,0,0,0,.44-.94V8.29a1.19,1.19,0,0,0-.22-.66A1.62,1.62,0,0,0,86,7.08a37,37,0,0,0-7.3-2.27,40.68,40.68,0,0,0-7.85-.72A39.44,39.44,0,0,0,58.91,5.91a38.35,38.35,0,0,0-10.79,5.37Zm-2.54,5.42a5.45,5.45,0,0,1-1.33-.17,4.39,4.39,0,0,1-1.22-.5,48,48,0,0,0-11-4.81,41.8,41.8,0,0,0-11.89-1.71,32.31,32.31,0,0,0-7,.77q-3.48.78-7,1.88c-1.7.81-2.3.68-3.81-.39S0,56.45,0,54.54V8C0,6.78.3,6.71.89,5.75A5.88,5.88,0,0,1,3.32,3.54,35.78,35.78,0,0,1,11,.89,47,47,0,0,1,20.13,0,46.26,46.26,0,0,1,33.46,1.94,44.8,44.8,0,0,1,45.69,7.74,41.74,41.74,0,0,1,57.63,1.94,45.32,45.32,0,0,1,70.8,0a46.15,46.15,0,0,1,9.07.89A36,36,0,0,1,87.5,3.54,5.76,5.76,0,0,1,90,5.75,6,6,0,0,1,90.93,9V54.54c0,2-.83,2.52-2.49,3.59s-2.3,1.16-3.92.28a53.2,53.2,0,0,0-6.86-1.94,33.38,33.38,0,0,0-6.86-.72,40.85,40.85,0,0,0-11.73,1.71,46.09,46.09,0,0,0-10.84,4.81,4.4,4.4,0,0,1-1.22.5"/><path class="cls-2" d="M84.52,62.75a52.91,52.91,0,0,0-6.86-1.94,33.31,33.31,0,0,0-6.86-.72,40.85,40.85,0,0,0-11.73,1.71,46.08,46.08,0,0,0-10.84,4.81,4.47,4.47,0,0,1-1.22.5,6,6,0,0,1-1.44.17,5.5,5.5,0,0,1-1.33-.17,4.46,4.46,0,0,1-1.22-.5,48,48,0,0,0-11-4.81,41.8,41.8,0,0,0-11.89-1.71,32.31,32.31,0,0,0-7,.77q-3.48.77-7,1.88"/><path class="cls-3" d="M6.48,9.19V51.07a29.58,29.58,0,0,1,5.19-1.27,54.88,54.88,0,0,1,8.46-.64,50.72,50.72,0,0,1,12.39,1.51,49.85,49.85,0,0,1,8.12,2.83V12.6A35.7,35.7,0,0,0,31.46,8.3"/><path class="cls-3" d="M84.45,9.16a34.48,34.48,0,0,0-6.28-1.9,38.31,38.31,0,0,0-7.37-.67A37.11,37.11,0,0,0,59.66,8.3a36,36,0,0,0-9,4.3V53.52a51.94,51.94,0,0,1,8-2.84,48,48,0,0,1,12.2-1.52"/></g></g></svg>