<svg xmlns="http://www.w3.org/2000/svg" viewBox="0 0 92.93 68.79"><defs><style>.cls-1{fill:#0f4470;}.cls-2,.cls-3{fill:none;stroke:#0f4470;}.cls-2{stroke-linecap:round;stroke-linejoin:round;}.cls-3{stroke-miterlimit:10;}</style></defs><title>credenciales</title><g id="Layer_2" data-name="Layer 2"><g id="Layer_1-2" data-name="Layer 1"><path class="cls-1" d="M21.13,52.66A48,48,0,0,1,32.91,54.1a48.71,48.71,0,0,1,11.23,4.42V12.28a37.86,37.86,0,0,0-11-5.37A41.06,41.06,0,0,0,21.13,5.09a35.5,35.5,0,0,0-7.69.77A61.19,61.19,0,0,0,6,8.08a1.62,1.62,0,0,0-.77.55A1.19,1.19,0,0,0,5,9.29V54.21a.91.91,0,0,0,.44.83,1.33,1.33,0,0,0,1,.17,23.88,23.88,0,0,1,6.64-1.94,51.93,51.93,0,0,1,8.08-.61m28,5.86A52.14,52.14,0,0,1,60.24,54.1,45.37,45.37,0,0,1,71.8,52.66a53,53,0,0,1,8.13.61,41,41,0,0,1,6.58,1.49,1,1,0,0,0,1-.05,1,1,0,0,0,.44-.94V9.29a1.19,1.19,0,0,0-.22-.66A1.62,1.62,0,0,0,87,8.08a37,37,0,0,0-7.3-2.27,40.68,40.68,0,0,0-7.85-.72A39.44,39.44,0,0,0,59.91,6.91a38.35,38.35,0,0,0-10.79,5.37Zm-2.54,6.42a5.45,5.45,0,0,1-1.33-.17,4.39,4.39,0,0,1-1.22-.5,48,48,0,0,0-11-4.81,41.8,41.8,0,0,0-11.89-1.71,32.31,32.31,0,0,0-7,.77q-3.48.78-7,1.88A4.47,4.47,0,0,1,2.27,60,5.18,5.18,0,0,1,0,55.54V9A6,6,0,0,1,.89,5.75,5.88,5.88,0,0,1,3.32,3.54,44.59,44.59,0,0,1,12,.89,47,47,0,0,1,21.13,0,46.26,46.26,0,0,1,34.46,1.94,44.8,44.8,0,0,1,46.69,7.74,41.74,41.74,0,0,1,58.64,1.94,45.32,45.32,0,0,1,71.8,0a46.15,46.15,0,0,1,9.07.89A44.85,44.85,0,0,1,89.5,3.54,5.76,5.76,0,0,1,92,5.75,6,6,0,0,1,92.93,9V55.54a5.15,5.15,0,0,1-2.49,4.59,4.52,4.52,0,0,1-4.92.28,53.2,53.2,0,0,0-6.86-1.94,33.38,33.38,0,0,0-6.86-.72,40.85,40.85,0,0,0-11.73,1.71,46.09,46.09,0,0,0-10.84,4.81,4.4,4.4,0,0,1-1.22.5,5.9,5.9,0,0,1-1.44.17"/><path class="cls-2" d="M85.52,63.75a52.91,52.91,0,0,0-6.86-1.94,33.31,33.31,0,0,0-6.86-.72,40.85,40.85,0,0,0-11.73,1.71,46.08,46.08,0,0,0-10.84,4.81,4.47,4.47,0,0,1-1.22.5,6,6,0,0,1-1.44.17,5.5,5.5,0,0,1-1.33-.17,4.46,4.46,0,0,1-1.22-.5,48,48,0,0,0-11-4.81A41.8,41.8,0,0,0,21.13,61.1a32.31,32.31,0,0,0-7,.77q-3.48.77-7,1.88"/><path class="cls-3" d="M7.48,10.19V52.07a29.58,29.58,0,0,1,5.19-1.27,54.88,54.88,0,0,1,8.46-.64,50.72,50.72,0,0,1,12.39,1.51,49.85,49.85,0,0,1,8.12,2.83V13.6a35.7,35.7,0,0,0-9.18-4.29"/><path class="cls-3" d="M85.45,10.16a34.48,34.48,0,0,0-6.28-1.9,38.31,38.31,0,0,0-7.37-.67A37.11,37.11,0,0,0,60.66,9.3a36,36,0,0,0-9,4.3V54.52a51.94,51.94,0,0,1,8-2.84,48,48,0,0,1,12.2-1.52"/></g></g></svg>