<svg xmlns="http://www.w3.org/2000/svg" viewBox="0 0 78.81 78.81"><defs><style>.cls-1{fill:#0f4470;}.cls-2{fill:none;stroke:#0f4470;stroke-linecap:round;stroke-linejoin:round;stroke-width:1.03px;}</style></defs><title>honorarios</title><g id="Layer_2" data-name="Layer 2"><g id="Layer_1-2" data-name="Layer 1"><path class="cls-1" d="M39.3,68.13a2.3,2.3,0,0,0,2.28-2.28v-2.9a15.82,15.82,0,0,0,9.33-3.68,10.92,10.92,0,0,0,3.84-8.76,11.22,11.22,0,0,0-3-8.14q-3-3.06-10.21-5.55-6.74-2.28-9-4.36A7.15,7.15,0,0,1,30.38,27a6.49,6.49,0,0,1,2.54-5.34,10.42,10.42,0,0,1,6.69-2,10.2,10.2,0,0,1,4.72,1,10.33,10.33,0,0,1,3.47,2.9,2.81,2.81,0,0,0,1.35.88,1.88,1.88,0,0,0,1.55-.16A2,2,0,0,0,51.9,23a1.77,1.77,0,0,0-.26-1.61,13.88,13.88,0,0,0-9.85-5.6V13a2.28,2.28,0,0,0-4.56,0v2.8a13.6,13.6,0,0,0-8.35,3.84,10.33,10.33,0,0,0-3,7.36,10.72,10.72,0,0,0,2.64,7.67q2.64,2.8,9.9,5.5T48,45a7,7,0,0,1,2.33,5.5,7.3,7.3,0,0,1-3.11,6.22A11.62,11.62,0,0,1,40.13,59a12.15,12.15,0,0,1-6.43-1.76,12.61,12.61,0,0,1-4.56-4.77,2.41,2.41,0,0,0-1.09-1,2,2,0,0,0-1.4-.1,2.38,2.38,0,0,0-1.5,1.3,1.65,1.65,0,0,0,.26,1.71,18,18,0,0,0,4.93,5.44,19.33,19.33,0,0,0,6.69,3V66a2,2,0,0,0,.67,1.55,2.29,2.29,0,0,0,1.61.62m.1,10.68a39.85,39.85,0,0,1-15.5-3A38.24,38.24,0,0,1,3,54.91a39.85,39.85,0,0,1-3-15.5A39.58,39.58,0,0,1,3,24a38.54,38.54,0,0,1,8.35-12.55A39.37,39.37,0,0,1,39.41,0,39.12,39.12,0,0,1,78.81,39.41,39.36,39.36,0,0,1,67.35,67.46a38.66,38.66,0,0,1-12.5,8.35,39.47,39.47,0,0,1-15.45,3m0-4.67q14.73,0,24.73-10t10-24.73q0-14.73-10-24.73t-24.73-10q-14.73,0-24.73,10a33.59,33.59,0,0,0-10,24.73,33.59,33.59,0,0,0,10,24.73q10,10,24.73,10"/><path class="cls-2" d="M65.86,57.94a31.32,31.32,0,0,0,5.6-18.53A31.54,31.54,0,0,0,39.41,7.35,31.55,31.55,0,0,0,7.34,39.41,31.55,31.55,0,0,0,39.41,71.47a32.08,32.08,0,0,0,15.29-3.61"/></g></g></svg>