<?xml version="1.0" encoding="UTF-8" standalone="no"?><!DOCTYPE svg PUBLIC "-//W3C//DTD SVG 1.1//EN" "http://www.w3.org/Graphics/SVG/1.1/DTD/svg11.dtd"><svg width="73px" height="50px" viewBox="0 0 84 71" version="1.1" xmlns="http://www.w3.org/2000/svg" xmlns:xlink="http://www.w3.org/1999/xlink" xml:space="preserve" xmlns:serif="http://www.serif.com/" style="fill-rule:evenodd;clip-rule:evenodd;stroke-miterlimit:10;"><path d="M10.05,10.05l0,50" style="fill:none;fill-rule:nonzero;stroke:#105fab;stroke-width:2px;"/><path d="M81.82,39.534c0,2.556 -2.079,4.635 -4.635,4.635l-2.036,0l0,-14.538c0,-3.429 -2.79,-6.217 -6.219,-6.217l-26.042,0l0,-1.244c0,-2.556 2.079,-4.634 4.635,-4.634l29.662,0c2.556,0 4.635,2.078 4.635,4.634l0,17.364Zm-8.255,7.461c0,2.556 -2.079,4.635 -4.635,4.635l-29.662,0c-2.555,0 -4.635,-2.079 -4.635,-4.635l0,-10.196l38.932,0l0,10.196Zm-38.932,-15.351l38.932,0l0,3.571l-38.932,0l0,-3.571Zm4.635,-6.647l29.662,0c2.556,0 4.635,2.079 4.635,4.634l0,0.429l-38.932,0l0,-0.429c0,-2.555 2.08,-4.634 4.635,-4.634m37.917,-9.045l-29.662,0c-3.429,0 -6.219,2.79 -6.219,6.218l0,1.244l-2.036,0c-3.429,0 -6.219,2.788 -6.219,6.217l0,17.364c0,3.429 2.79,6.219 6.219,6.219l29.662,0c3.429,0 6.219,-2.79 6.219,-6.219l0,-1.242l2.036,0c3.429,0 6.219,-2.79 6.219,-6.219l0,-17.364c0,-3.428 -2.79,-6.218 -6.219,-6.218" style="fill:#105fab;fill-rule:nonzero;"/><path d="M45.418,40.642l-7.462,0c-0.437,0 -0.792,0.354 -0.792,0.792c0,0.437 0.355,0.792 0.792,0.792l7.462,0c0.437,0 0.791,-0.355 0.791,-0.792c0,-0.438 -0.354,-0.792 -0.791,-0.792" style="fill:#00aeef;fill-rule:nonzero;"/><path d="M53.015,40.642l-4.206,0c-0.437,0 -0.791,0.354 -0.791,0.792c0,0.437 0.354,0.792 0.791,0.792l4.206,0c0.437,0 0.792,-0.355 0.792,-0.792c0,-0.438 -0.355,-0.792 -0.792,-0.792" style="fill:#00aeef;fill-rule:nonzero;"/><path d="M66.186,46.056c-1.077,0 -1.954,-0.877 -1.954,-1.954c0,-1.077 0.877,-1.954 1.954,-1.954c1.078,0 1.954,0.877 1.954,1.954c0,1.077 -0.876,1.954 -1.954,1.954m0,-5.492c-1.95,0 -3.537,1.587 -3.537,3.538c0,1.95 1.587,3.537 3.537,3.537c1.95,0 3.538,-1.587 3.538,-3.537c0,-1.951 -1.588,-3.538 -3.538,-3.538" style="fill:#00aeef;fill-rule:nonzero;"/></svg>
