<svg xmlns="http://www.w3.org/2000/svg" viewBox="0 0 653.81 91"><defs><style>.cls-1{fill:#0d427c;}.cls-2{fill:#00a7e8;}</style></defs><title>mv logo_1</title><g id="Layer_2" data-name="Layer 2"><g id="Layer_1-2" data-name="Layer 1"><path class="cls-1" d="M527.08,21V66c0,6.85,3.73,11,10.73,11A24.71,24.71,0,0,0,547,75.4V21h15.35V85.92a57.27,57.27,0,0,1-24.27,5c-18.07,0-26.41-8.37-26.41-23.09V21Z"/><path class="cls-2" d="M82.15,88.79,75.84,32.48c-.62-5.5-.87-12-.87-12h-.24s-1.24,6.35-3,12l-17,56.31H43.67L26.6,32.48c-1.73-5.61-3-12-3-12h-.25s-.25,6.47-.87,12l-6.3,56.31H0L11.14.36H30.93L46.52,52c1.49,5.13,2.6,11.35,2.6,11.35h.25S50.47,57.15,52,52L67.43.36H87.22L98.36,88.79Z"/><path class="cls-2" d="M121.48,48.47h27.68c0-9.89-4.95-14.9-12.74-14.9s-13.52,5-14.9,14.7Zm.46,8.5a43.84,43.84,0,0,0,.37,5.8c1.49,9.65,8.66,14.42,18.43,14.42A43.22,43.22,0,0,0,159.31,73l4.83,12.46c-5.57,2.81-15,4.76-24.62,4.76-22,0-33.65-14.17-33.65-34.45s11.51-34.32,30.93-34.32c18.44,0,28.71,12,28.71,29.93a42.81,42.81,0,0,1-.25,5.61Z"/><path class="cls-2" d="M198.23,91c-12.87,0-18.93-7.34-18.93-21.91V33.64h-8.53V20.5h8.53V5l16.58-5V20.5h12.49V33.64H195.88V67.93c0,5.67,3.33,7.61,7.67,7.61a13,13,0,0,0,4.82-1V89.06c-2,1-6.06,1.94-10.15,1.94"/><path class="cls-2" d="M250.76,36.37a27.29,27.29,0,0,0-7.54-1,23.41,23.41,0,0,0-8.41,1.39V91H218V26.41a74.71,74.71,0,0,1,27.22-4.93,52.43,52.43,0,0,1,8.66.64Z"/><path class="cls-2" d="M287.1,34.55c-8.91,0-13.36,7.94-13.36,21.14s4.45,21,13.36,21,13.36-7.82,13.36-21S296,34.55,287.1,34.55m0,55.7c-19.43,0-30.19-14.78-30.19-34.45s10.76-34.32,30.19-34.32,30.18,14.66,30.18,34.32S306.53,90.25,287.1,90.25"/><path class="cls-1" d="M492.23,91c-12.87,0-18.93-7.34-18.93-21.91V33.64h-8.53V20.5h8.53V5l16.58-5V20.5h12.49V33.64H489.88V67.93c0,5.67,3.33,7.61,7.67,7.61a13,13,0,0,0,4.82-1V89.06c-2,1-6.06,1.94-10.15,1.94"/><polygon class="cls-1" points="316.31 0 340.31 91 360.31 91 385.31 0 369.31 0 351.31 67.22 333.31 0.37 316.31 0"/><polygon class="cls-1" points="636.81 90.72 653.81 90.72 653.81 0.4 636.81 0 636.81 90.72"/><path class="cls-1" d="M453.76,35.82a27,27,0,0,0-7.54-1,23.2,23.2,0,0,0-8.41,1.41V91H421V25.76a74.05,74.05,0,0,1,27.22-5,51.92,51.92,0,0,1,8.66.65Z"/><path class="cls-1" d="M625.59,90.06c-7.2,0-12.55-.39-14.4-6.38-4.25,5.57-11.08,6.38-19.75,6.38-11.63,0-20.12-6.27-20.12-17.13V71c0-13.51,15-18.66,35.63-22.56V38.82c0-3.62-2.4-5.85-7.57-5.85-5.35,0-7.2,2.09-7.2,6.13V44H574.45V39.8c0-10.72,8.12-18.8,25.85-18.8s23.32,8.63,23.32,20.33V76.14c.41,3.51,1.29,3.34,4.43,3.48V90.06ZM606.94,59.73c-11.63,1.95-17.17,3.18-17.17,9.3V72.8c0,3.62,2.58,6.27,7.38,6.27,5.35,0,9.78-2.92,9.78-7Z"/><rect class="cls-1" x="392.31" y="21" width="17" height="70"/><rect class="cls-1" x="392.36" y="0.5" width="17" height="16" rx="3.5" ry="3.5"/></g></g></svg>