<svg xmlns="http://www.w3.org/2000/svg" viewBox="0 0 65.09 68.79"><defs><style>.cls-1{fill:#0f4470;}.cls-2{fill:none;stroke:#0f4470;stroke-miterlimit:10;stroke-width:0.96px;}</style></defs><title>mis facturas</title><g id="Layer_2" data-name="Layer 2"><g id="Layer_1-2" data-name="Layer 1"><path class="cls-1" d="M48.78,31.29a2.77,2.77,0,1,0-1.86-.81,2.55,2.55,0,0,0,1.86.81"/><path class="cls-1" d="M48.78,19.21a2.62,2.62,0,0,0,1.85-4.52,2.63,2.63,0,1,0-3.71,3.71,2.55,2.55,0,0,0,1.86.81"/><path class="cls-1" d="M11.9.4V50a.4.4,0,0,1-.4.4H2.76a2.62,2.62,0,0,0-2,.81,2.75,2.75,0,0,0-.76,2v7.14a8.17,8.17,0,0,0,2.48,6,8.16,8.16,0,0,0,6,2.47H56.62a8.45,8.45,0,0,0,8.47-8.47V.4a.4.4,0,0,0-.4-.4H12.29a.4.4,0,0,0-.4.4M48.15,64.11a.4.4,0,0,1-.4.4H8.37a4,4,0,0,1-2.9-1.19,4.06,4.06,0,0,1-1.19-3V55.2a.4.4,0,0,1,.4-.4H47.75a.4.4,0,0,1,.4.4Zm12.66-3.79a4.07,4.07,0,0,1-4.19,4.19,3.91,3.91,0,0,1-2.95-1.19,4.15,4.15,0,0,1-1.14-3V53.44a3.08,3.08,0,0,0-1.18-2.52,2.64,2.64,0,0,0-1.58-.5H16.58a.4.4,0,0,1-.4-.4V5a.4.4,0,0,1,.4-.4H60.41a.4.4,0,0,1,.4.4Z"/><path class="cls-1" d="M25.16,31.1h16a2.1,2.1,0,0,0,1.48-.57A2,2,0,0,0,43.2,29a2.13,2.13,0,0,0-.62-1.57,2,2,0,0,0-1.48-.62H25.25a2.18,2.18,0,0,0-1.52.62,2,2,0,0,0-.67,1.47,2.17,2.17,0,0,0,.62,1.52,1.94,1.94,0,0,0,1.48.67"/><path class="cls-1" d="M25.16,18.73h16a2,2,0,0,0,1.48-.62,2.13,2.13,0,0,0,.62-1.57A2.17,2.17,0,0,0,42.59,15a1.94,1.94,0,0,0-1.48-.67H25.25a2.18,2.18,0,0,0-1.52.62,2,2,0,0,0-.67,1.57,2.17,2.17,0,0,0,.62,1.52,1.94,1.94,0,0,0,1.48.67"/><polyline class="cls-2" points="18.32 48.62 18.32 6.95 58.5 6.95 58.5 58.56"/></g></g></svg>