<svg xmlns="http://www.w3.org/2000/svg" viewBox="0 0 86.46 60.1"><defs><style>.cls-1,.cls-2{fill:#0f4470;}.cls-2{stroke:#0f4470;stroke-miterlimit:10;}</style></defs><title>mis pacientes</title><g id="Layer_2" data-name="Layer 2"><g id="Layer_1-2" data-name="Layer 1"><path class="cls-1" d="M3.06,60.1A3,3,0,0,1,.9,59.26,2.9,2.9,0,0,1,0,57v-5a10.24,10.24,0,0,1,1.74-5.85,11.12,11.12,0,0,1,4.8-4A88.88,88.88,0,0,1,19,37.85a49.8,49.8,0,0,1,12.6-1.48,49.64,49.64,0,0,1,12.65,1.48,90,90,0,0,1,12.44,4.43,11.11,11.11,0,0,1,4.8,4,10.23,10.23,0,0,1,1.74,5.85v5a2.9,2.9,0,0,1-3.06,3.06Zm65.27,0A2.8,2.8,0,0,0,69.69,59a3.64,3.64,0,0,0,.53-2.06V52.3a16,16,0,0,0-2.64-9.44,21.1,21.1,0,0,0-6.85-6.17,95,95,0,0,1,10.65,2.21,41,41,0,0,1,8.44,3.16,13.8,13.8,0,0,1,4.85,4.32,10.26,10.26,0,0,1,1.79,5.91V57a2.9,2.9,0,0,1-.9,2.21,3,3,0,0,1-2.16.84ZM31.63,27.94a13.53,13.53,0,0,1-13.92-14,13.46,13.46,0,0,1,4-10,13.6,13.6,0,0,1,10-3.9A13.74,13.74,0,0,1,41.7,3.9a13.46,13.46,0,0,1,4,10,13.53,13.53,0,0,1-14,14M65,13.92A13.74,13.74,0,0,1,61,24a13.46,13.46,0,0,1-10,4,11.61,11.61,0,0,1-1.53-.11A10.75,10.75,0,0,1,48,27.52a17.41,17.41,0,0,0,3.37-6,23.76,23.76,0,0,0,1.16-7.65A21.12,21.12,0,0,0,51.3,6.54,24.64,24.64,0,0,0,48,.42,7.68,7.68,0,0,1,49.45.11,12.65,12.65,0,0,1,51,0,13.36,13.36,0,0,1,65,13.92M4.85,55.36H58.52V52.09a5.74,5.74,0,0,0-.95-3.16,6.39,6.39,0,0,0-2.74-2.32,64.77,64.77,0,0,0-11.7-4.27,49.47,49.47,0,0,0-11.49-1.21,49,49,0,0,0-11.39,1.21A64.73,64.73,0,0,0,8.54,46.6,6.39,6.39,0,0,0,5.8,48.92a5.74,5.74,0,0,0-.95,3.16ZM31.63,23.2a9,9,0,0,0,9.28-9.28,8.88,8.88,0,0,0-2.64-6.54,9,9,0,0,0-6.64-2.64,9,9,0,0,0-9.17,9.17,9,9,0,0,0,2.63,6.64,8.88,8.88,0,0,0,6.54,2.64"/><line class="cls-2" x1="7.72" y1="51.79" x2="53.94" y2="51.79"/></g></g></svg>