<svg xmlns="http://www.w3.org/2000/svg" viewBox="0 0 62.56 73.43"><defs><style>.cls-1{fill:#0f4470;}.cls-2{fill:none;stroke:#0f4470;stroke-miterlimit:10;stroke-width:0.96px;}</style></defs><title>rusultados de imagen laboratorio</title><g id="Layer_2" data-name="Layer 2"><g id="Layer_1-2" data-name="Layer 1"><path class="cls-1" d="M5.34,73.43a5.14,5.14,0,0,1-3.77-1.56A5.14,5.14,0,0,1,0,68.09V5.34A5.14,5.14,0,0,1,1.56,1.56,5.14,5.14,0,0,1,5.34,0H57.23A5.14,5.14,0,0,1,61,1.56a5.14,5.14,0,0,1,1.56,3.77V68.09a5.34,5.34,0,0,1-5.34,5.34Zm0-4.14H57.23a1.11,1.11,0,0,0,1.2-1.2V5H4.14V68.09a1.11,1.11,0,0,0,1.2,1.2M15,42.19A2.12,2.12,0,1,1,15,38H46.92a2.12,2.12,0,1,1,0,4.23Zm0-9.92A2.12,2.12,0,1,1,15,28H46.92a2.12,2.12,0,1,1,0,4.23Zm0-10.74a2.12,2.12,0,1,1,0-4.23H46.92a2.12,2.12,0,1,1,0,4.23ZM15,54a2.12,2.12,0,1,1,0-4.23H32.2a2.12,2.12,0,1,1,0,4.23Z"/><polyline class="cls-2" points="6.89 64.17 6.89 7.68 55.94 7.68 55.94 67.06 10.96 67.06"/></g></g></svg>