<svg xmlns="http://www.w3.org/2000/svg" viewBox="0 0 51.89 77.54"><defs><style>.cls-1{fill:#0f4470;}.cls-2{fill:none;stroke:#0f4470;stroke-miterlimit:10;stroke-width:0.96px;}</style></defs><title>ruta del paciente</title><g id="Layer_2" data-name="Layer 2"><g id="Layer_1-2" data-name="Layer 1"><path class="cls-1" d="M22,68.85H2.29A2.22,2.22,0,0,1,0,66.56,2.07,2.07,0,0,1,.65,65a2.33,2.33,0,0,1,1.65-.6H22.15l-5-5a2.09,2.09,0,0,1-.6-1.55,2.33,2.33,0,0,1,4-1.65l8.28,8.28a3,3,0,0,1,0,4.09l-8.38,8.28a2.18,2.18,0,0,1-3.19,0,2.55,2.55,0,0,1-.7-1.7,2.2,2.2,0,0,1,.7-1.6ZM0,5.79a5.55,5.55,0,0,1,1.75-4A5.55,5.55,0,0,1,5.79,0H46.1a5.55,5.55,0,0,1,4,1.75,5.55,5.55,0,0,1,1.75,4V58.48H47.4V49.9a37.3,37.3,0,0,0-9.73-3.74A49.52,49.52,0,0,0,25.95,44.8a48.89,48.89,0,0,0-11.68,1.35A39.09,39.09,0,0,0,4.49,49.9v8.58H0ZM4.49,44.51A48.81,48.81,0,0,1,15,41.06a52.62,52.62,0,0,1,21.85,0A48.81,48.81,0,0,1,47.4,44.51V5.79a1.21,1.21,0,0,0-1.3-1.3H5.79a1.21,1.21,0,0,0-1.3,1.3ZM49.6,68.85H36.22a2.22,2.22,0,0,1-2.3-2.29,2.07,2.07,0,0,1,.65-1.6,2.33,2.33,0,0,1,1.65-.6H49.6a2.22,2.22,0,0,1,2.29,2.29,2.11,2.11,0,0,1-.65,1.55,2.23,2.23,0,0,1-1.65.65M25.95,33.43a10,10,0,0,1-7.38-3,10.08,10.08,0,0,1-3-7.34,10,10,0,0,1,3-7.38,10.08,10.08,0,0,1,7.33-3A10.23,10.23,0,0,1,36.32,23.05,10.39,10.39,0,0,1,25.95,33.43m0-4.59a5.69,5.69,0,0,0,4.19-1.7,5.58,5.58,0,0,0,1.7-4.09,5.79,5.79,0,0,0-5.89-5.89,5.79,5.79,0,0,0-5.89,5.89,5.58,5.58,0,0,0,1.7,4.09,5.69,5.69,0,0,0,4.19,1.7"/><path class="cls-2" d="M47.32,52.74A37.31,37.31,0,0,0,37.59,49a49.48,49.48,0,0,0-11.73-1.35A48.85,48.85,0,0,0,14.19,49a39.12,39.12,0,0,0-9.78,3.74"/></g></g></svg>